<?xml version="1.0" encoding="utf-8"?>
<!DOCTYPE svg PUBLIC "-//W3C//DTD SVG 1.1//EN" "http://www.w3.org/Graphics/SVG/1.1/DTD/svg11.dtd">
<svg xmlns="http://www.w3.org/2000/svg" xmlns:xlink="http://www.w3.org/1999/xlink" version="1.1" height="244.64" width="169.075" viewBox="-1.25 -236.52 169.075 244.64">
<!-- SVG-cards 2.0.1								-->
<!-- This set of SVG files is a complete cards game with figures, numbers	-->
<!--	and backs of cards completely designed in SVG.				-->
<!--										-->
<!--	Copyright (C) 2005 David Bellot						-->
<!--										-->
<!--	This library is free software; you can redistribute it and/or		-->
<!--	modify it under the terms of the GNU Lesser General Public		-->
<!--	License as published by the Free Software Foundation; either		-->
<!--	version 2 of the License, or (at your option) any later version		-->
<!--										-->
<!--	This library is distributed in the hope that it will be useful,		-->
<!--	but WITHOUT ANY WARRANTY; without even the implied warranty of		-->
<!--	MERCHANTABILITY or FITNESS FOR A PARTICULAR PURPOSE.  See the GNU	-->
<!--	Lesser General Public License for more details.				-->
<!--										-->
<!--	You should have received a copy of the GNU Lesser General Public	-->
<!--	License along with this library; if not, write to the Free Software	-->
<!--	Foundation, Inc., 59 Temple Place, Suite 330, Boston, MA 02111-1307  USA-->
<!--                                                                            -->
<!--	Contact the author David Bellot at david.bellot@free.fr			-->
<defs> <g id="base"> <path style="fill:#FFFFFF;stroke:#000000;stroke-width:2.5" d="M 0,0C0,3.78 3.09,6.87 6.87,6.87L159.715,6.87C163.485,6.87 166.575,3.78 166.575,0L166.575,-228.4C166.575,-232.18 163.485,-235.27 159.715,-235.27L6.87,-235.27C3.09,-235.27 0,-232.18 0,-228.4L0,0 z"/> 	</g> <g id="n_10"><text transform="scale(0.32258 1.05741)" 	font-family="Bitstream Vera Serif" font-weight="bold" 	font-size="43">10</text></g> <g id="heart" > <path style="fill:#E6180A;" d="M-7.67,3.93c0.01-4.71,5.91-8.14,7.64-11.87c1.75,3.72,7.66,7.12,7.7,11.83c0.01,2.22-1.71,4.03-3.82,4.03C1.73,7.92,0,6.13,0,3.91c0,2.23-1.71,4.03-3.82,4.03C-5.94,7.95-7.66,6.15-7.67,3.93z"/> </g> </defs> <g id="10_heart" transform="translate(-1508.17 -486.275)"> <use xlink:href="#base" x="1508.17" y="486.275"/> <use xlink:href="#n_10" x="1512.17" y="287.157" style="fill:#e6180a"/> <use xlink:href="#n_10" x="1671.75" y="455.995" transform="rotate(180,1671.75,455.995)" style="fill:#e6180a"/> <use xlink:href="#heart" x="1521.83" y="301.157" transform="rotate(180,1521.83,301.157)"/> <use xlink:href="#heart" x="1662.1" y="441.995"/> <use xlink:href="#heart" x="646.681" y="119.902" transform="scale(2.4) rotate(180,646.681,119.902)"/> <use xlink:href="#heart" x="646.681" y="142.467" transform="scale(2.4) rotate(180,646.681,142.467)"/> <use xlink:href="#heart" x="646.681" y="165.451" transform="scale(2.4)"/> <use xlink:href="#heart" x="646.681" y="188.016" transform="scale(2.4)"/> <use xlink:href="#heart" x="679.955" y="119.902" transform="scale(2.4) rotate(180,679.955,119.902)"/> <use xlink:href="#heart" x="679.955" y="142.467" transform="scale(2.4) rotate(180,679.955,142.467)"/> <use xlink:href="#heart" x="679.955" y="165.451" transform="scale(2.4)"/> <use xlink:href="#heart" x="679.955" y="188.016" transform="scale(2.4)"/> <use xlink:href="#heart" x="663.318" y="131.185" transform="scale(2.4) rotate(180,663.318,131.185)"/> <use xlink:href="#heart" x="663.318" y="176.733" transform="scale(2.4)"/> </g> </svg> 